<?xml version="1.0" encoding="utf-8"?>
<svg viewBox="303.092 146.755 200.607 180.08" width="200.607px" height="180.08px" xmlns="http://www.w3.org/2000/svg">
  <g style="" transform="matrix(0.351942, 0, 0, 0.351942, 242.960342, 146.75473)">
    <path d="M 733.857 193.675 L 733.657 193.675 L 618.857 242.695 L 461.787 309.765 C 460.547 310.286 459.151 310.293 457.907 309.785 L 295.857 242.555 L 178.237 193.755 L 178.057 193.675 L 177.857 193.675 C 173.993 193.679 170.861 196.811 170.857 200.675 L 170.857 504.675 C 170.861 508.539 173.993 511.671 177.857 511.675 L 733.857 511.675 C 737.721 511.671 740.853 508.539 740.857 504.675 L 740.857 200.675 C 740.853 196.811 737.721 193.679 733.857 193.675 Z" fill="#fff"/>
    <path d="M 735.856 195.675 C 735.652 195.675 735.453 195.612 735.285 195.496 L 458.726 2.892 C 457.003 1.697 454.718 1.701 452.998 2.902 L 178.431 195.494 C 177.801 195.936 176.928 195.53 176.86 194.763 C 176.829 194.407 176.99 194.061 177.282 193.856 L 451.849 1.264 C 454.257 -0.417 457.456 -0.422 459.869 1.251 L 736.428 193.854 C 737.06 194.294 736.978 195.253 736.281 195.58 C 736.148 195.643 736.003 195.675 735.856 195.675 L 735.856 195.675 Z" fill="#3f3d56"/>
    <polygon points="194.121 202.502 456.132 8.319 720.132 216.319 469.632 364.819 333.632 333.819 194.121 202.502" fill="#e6e6e6"/>
    <path d="M 345.112 456.541 L 215.672 456.541 C 211.017 456.547 208.101 451.511 210.423 447.477 C 211.504 445.6 213.506 444.444 215.672 444.446 L 345.112 444.446 C 349.768 444.44 352.684 449.476 350.361 453.511 C 349.281 455.388 347.278 456.544 345.112 456.541 Z" fill="#94a3b8"/>
    <path d="M 262.112 430.541 L 215.672 430.541 C 211.017 430.547 208.101 425.511 210.423 421.477 C 211.504 419.6 213.506 418.444 215.672 418.446 L 262.112 418.446 C 266.768 418.44 269.684 423.476 267.361 427.511 C 266.281 429.388 264.278 430.544 262.112 430.541 L 262.112 430.541 Z" fill="#94a3b8"/>
    <path d="M 459.817 310.659 C 458.833 310.661 457.859 310.47 456.948 310.097 L 295.357 243.049 L 295.357 33.175 C 295.362 29.311 298.493 26.179 302.357 26.175 L 612.357 26.175 C 616.221 26.179 619.353 29.311 619.357 33.175 L 619.357 243.195 L 619.053 243.325 L 462.773 310.065 C 461.837 310.458 460.832 310.66 459.817 310.659 Z" fill="#fff"/>
    <path d="M 459.817 311.159 C 458.768 311.16 457.729 310.957 456.757 310.56 L 294.857 243.383 L 294.857 33.175 C 294.862 29.034 298.217 25.679 302.357 25.675 L 612.357 25.675 C 616.497 25.679 619.852 29.034 619.857 33.175 L 619.857 243.525 L 462.969 310.524 C 461.971 310.944 460.9 311.16 459.817 311.159 Z M 296.857 242.047 L 457.52 308.711 C 459.019 309.319 460.697 309.309 462.188 308.683 L 617.857 242.205 L 617.857 33.175 C 617.853 30.139 615.393 27.678 612.357 27.675 L 302.357 27.675 C 299.321 27.678 296.861 30.139 296.857 33.175 L 296.857 242.047 Z" fill="#3f3d56"/>
    <path d="M 733.857 193.675 L 733.657 193.675 L 618.857 242.695 L 461.787 309.765 C 460.547 310.286 459.151 310.293 457.907 309.785 L 295.857 242.555 L 178.237 193.755 L 178.057 193.675 L 177.857 193.675 C 173.993 193.679 170.861 196.811 170.857 200.675 L 170.857 504.675 C 170.861 508.539 173.993 511.671 177.857 511.675 L 733.857 511.675 C 737.721 511.671 740.853 508.539 740.857 504.675 L 740.857 200.675 C 740.853 196.811 737.721 193.679 733.857 193.675 Z M 738.857 504.675 C 738.856 507.436 736.618 509.674 733.857 509.675 L 177.857 509.675 C 175.096 509.674 172.858 507.436 172.857 504.675 L 172.857 200.675 C 172.861 197.988 174.982 195.783 177.667 195.675 L 295.857 244.715 L 457.137 311.635 C 458.883 312.345 460.839 312.334 462.577 311.605 L 618.857 244.865 L 734.057 195.675 C 736.736 195.791 738.851 197.993 738.857 200.675 L 738.857 504.675 Z" fill="#3f3d56"/>
    <path d="M 434.66 104.626 L 324.66 104.626 C 318.502 104.626 314.653 97.96 317.732 92.626 C 319.161 90.151 321.802 88.626 324.66 88.626 L 434.66 88.626 C 440.818 88.626 444.667 95.293 441.588 100.626 C 440.159 103.101 437.518 104.626 434.66 104.626 Z" fill="#94a3b8"/>
    <path d="M 377.66 70.626 L 324.66 70.626 C 318.502 70.626 314.653 63.96 317.732 58.626 C 319.161 56.151 321.802 54.626 324.66 54.626 L 377.66 54.626 C 383.818 54.626 387.667 61.293 384.588 66.626 C 383.159 69.101 380.518 70.626 377.66 70.626 Z" fill="#94a3b8"/>
    <path d="M 539.629 184.626 L 371.629 184.626 C 365.47 184.626 361.621 177.96 364.7 172.626 C 366.129 170.151 368.77 168.626 371.629 168.626 L 539.629 168.626 C 545.787 168.626 549.636 175.293 546.557 180.626 C 545.128 183.101 542.487 184.626 539.629 184.626 Z" fill="#ccc"/>
    <path d="M 539.629 221.626 L 371.629 221.626 C 365.47 221.626 361.621 214.96 364.7 209.626 C 366.129 207.151 368.77 205.626 371.629 205.626 L 539.629 205.626 C 545.787 205.626 549.636 212.293 546.557 217.626 C 545.128 220.101 542.487 221.626 539.629 221.626 Z" fill="#ccc"/>
  </g>
</svg>